<svg width="186" height="72" viewBox="0 0 186 72" fill="none" xmlns="http://www.w3.org/2000/svg">
<path d="M13.7988 6.33594V32H9.14062V11.7676L2.9707 13.8066V10.0449L13.2715 6.33594H13.7988ZM27.0352 27.8164L27 31.0332C27 32.2871 26.6895 33.5586 26.0684 34.8477C25.4473 36.1367 24.6445 37.2031 23.6602 38.0469L21.1992 36.6934C21.5156 36.166 21.8086 35.6328 22.0781 35.0938C22.3594 34.5547 22.582 33.9688 22.7461 33.3359C22.9219 32.7148 23.0098 32.0176 23.0098 31.2441V27.8164H27.0352ZM48.2168 28.3438V32H30.8848V28.8711L39.1992 19.8887C40.0664 18.9043 40.752 18.0488 41.2559 17.3223C41.7598 16.5957 42.1172 15.9395 42.3281 15.3535C42.5508 14.7559 42.6621 14.1875 42.6621 13.6484C42.6621 12.8633 42.5215 12.1777 42.2402 11.5918C41.959 10.9941 41.5488 10.5313 41.0098 10.2031C40.4824 9.875 39.832 9.71094 39.0586 9.71094C38.2031 9.71094 37.4707 9.91016 36.8613 10.3086C36.2637 10.6953 35.8066 11.2344 35.4902 11.9258C35.1855 12.6172 35.0332 13.4082 35.0332 14.2988H30.375C30.375 12.7871 30.7266 11.4102 31.4297 10.168C32.1328 8.91406 33.1406 7.91211 34.4531 7.16211C35.7656 6.41211 37.3242 6.03711 39.1289 6.03711C40.8867 6.03711 42.375 6.33008 43.5938 6.91602C44.8125 7.49023 45.7383 8.31055 46.3711 9.37695C47.0039 10.4434 47.3203 11.7148 47.3203 13.1914C47.3203 14.0117 47.1855 14.8203 46.916 15.6172C46.6465 16.4141 46.2656 17.2051 45.7734 17.9902C45.293 18.7637 44.7188 19.5488 44.0508 20.3457C43.3828 21.1426 42.6387 21.957 41.8184 22.7891L36.8262 28.3438H48.2168ZM68.3965 17.0059V21.3125C68.3965 23.2812 68.1973 24.9629 67.7988 26.3574C67.4004 27.752 66.8262 28.8945 66.0762 29.7852C65.3262 30.6641 64.4297 31.3145 63.3867 31.7363C62.3438 32.1465 61.1836 32.3516 59.9062 32.3516C58.8867 32.3516 57.9375 32.2227 57.0586 31.9648C56.1797 31.6953 55.3887 31.2852 54.6855 30.7344C53.9941 30.1719 53.3965 29.457 52.8926 28.5898C52.4004 27.7227 52.0195 26.6855 51.75 25.4785C51.4922 24.2715 51.3633 22.8828 51.3633 21.3125V17.0059C51.3633 15.0371 51.5625 13.3613 51.9609 11.9785C52.3711 10.5957 52.9512 9.46484 53.7012 8.58594C54.4512 7.70703 55.3477 7.06836 56.3906 6.66992C57.4336 6.25977 58.5938 6.05469 59.8711 6.05469C60.9023 6.05469 61.8516 6.18359 62.7188 6.44141C63.5977 6.69922 64.3828 7.10352 65.0742 7.6543C65.7773 8.19336 66.375 8.89648 66.8672 9.76367C67.3594 10.6191 67.7344 11.6504 67.9922 12.8574C68.2617 14.0527 68.3965 15.4355 68.3965 17.0059ZM63.7559 21.9453V16.3555C63.7559 15.3711 63.6973 14.5156 63.5801 13.7891C63.4746 13.0508 63.3164 12.4238 63.1055 11.9082C62.8945 11.3926 62.6309 10.9766 62.3145 10.6602C61.998 10.332 61.6348 10.0918 61.2246 9.93945C60.8145 9.78711 60.3633 9.71094 59.8711 9.71094C59.2617 9.71094 58.7168 9.83398 58.2363 10.0801C57.7559 10.3145 57.3516 10.6895 57.0234 11.2051C56.6953 11.7207 56.4434 12.4062 56.2676 13.2617C56.1035 14.1055 56.0215 15.1367 56.0215 16.3555V21.9453C56.0215 22.9297 56.0742 23.791 56.1797 24.5293C56.2969 25.2676 56.4609 25.9004 56.6719 26.4277C56.8945 26.9551 57.1582 27.3887 57.4629 27.7285C57.7793 28.0566 58.1426 28.3027 58.5527 28.4668C58.9629 28.6191 59.4141 28.6953 59.9062 28.6953C60.5273 28.6953 61.0723 28.5723 61.541 28.3262C62.0215 28.0801 62.4258 27.6934 62.7539 27.166C63.082 26.627 63.3281 25.9297 63.4922 25.0742C63.668 24.207 63.7559 23.1641 63.7559 21.9453ZM88.9629 17.0059V21.3125C88.9629 23.2812 88.7637 24.9629 88.3652 26.3574C87.9668 27.752 87.3926 28.8945 86.6426 29.7852C85.8926 30.6641 84.9961 31.3145 83.9531 31.7363C82.9102 32.1465 81.75 32.3516 80.4727 32.3516C79.4531 32.3516 78.5039 32.2227 77.625 31.9648C76.7461 31.6953 75.9551 31.2852 75.252 30.7344C74.5605 30.1719 73.9629 29.457 73.459 28.5898C72.9668 27.7227 72.5859 26.6855 72.3164 25.4785C72.0586 24.2715 71.9297 22.8828 71.9297 21.3125V17.0059C71.9297 15.0371 72.1289 13.3613 72.5273 11.9785C72.9375 10.5957 73.5176 9.46484 74.2676 8.58594C75.0176 7.70703 75.9141 7.06836 76.957 6.66992C78 6.25977 79.1602 6.05469 80.4375 6.05469C81.4688 6.05469 82.418 6.18359 83.2852 6.44141C84.1641 6.69922 84.9492 7.10352 85.6406 7.6543C86.3438 8.19336 86.9414 8.89648 87.4336 9.76367C87.9258 10.6191 88.3008 11.6504 88.5586 12.8574C88.8281 14.0527 88.9629 15.4355 88.9629 17.0059ZM84.3223 21.9453V16.3555C84.3223 15.3711 84.2637 14.5156 84.1465 13.7891C84.041 13.0508 83.8828 12.4238 83.6719 11.9082C83.4609 11.3926 83.1973 10.9766 82.8809 10.6602C82.5645 10.332 82.2012 10.0918 81.791 9.93945C81.3809 9.78711 80.9297 9.71094 80.4375 9.71094C79.8281 9.71094 79.2832 9.83398 78.8027 10.0801C78.3223 10.3145 77.918 10.6895 77.5898 11.2051C77.2617 11.7207 77.0098 12.4062 76.834 13.2617C76.6699 14.1055 76.5879 15.1367 76.5879 16.3555V21.9453C76.5879 22.9297 76.6406 23.791 76.7461 24.5293C76.8633 25.2676 77.0273 25.9004 77.2383 26.4277C77.4609 26.9551 77.7246 27.3887 78.0293 27.7285C78.3457 28.0566 78.709 28.3027 79.1191 28.4668C79.5293 28.6191 79.9805 28.6953 80.4727 28.6953C81.0938 28.6953 81.6387 28.5723 82.1074 28.3262C82.5879 28.0801 82.9922 27.6934 83.3203 27.166C83.6484 26.627 83.8945 25.9297 84.0586 25.0742C84.2344 24.207 84.3223 23.1641 84.3223 21.9453ZM97.207 27.8164L97.1719 31.0332C97.1719 32.2871 96.8613 33.5586 96.2402 34.8477C95.6191 36.1367 94.8164 37.2031 93.832 38.0469L91.3711 36.6934C91.6875 36.166 91.9805 35.6328 92.25 35.0938C92.5312 34.5547 92.7539 33.9688 92.918 33.3359C93.0938 32.7148 93.1816 32.0176 93.1816 31.2441V27.8164H97.207ZM118.002 17.0059V21.3125C118.002 23.2812 117.803 24.9629 117.404 26.3574C117.006 27.752 116.432 28.8945 115.682 29.7852C114.932 30.6641 114.035 31.3145 112.992 31.7363C111.949 32.1465 110.789 32.3516 109.512 32.3516C108.492 32.3516 107.543 32.2227 106.664 31.9648C105.785 31.6953 104.994 31.2852 104.291 30.7344C103.6 30.1719 103.002 29.457 102.498 28.5898C102.006 27.7227 101.625 26.6855 101.355 25.4785C101.098 24.2715 100.969 22.8828 100.969 21.3125V17.0059C100.969 15.0371 101.168 13.3613 101.566 11.9785C101.977 10.5957 102.557 9.46484 103.307 8.58594C104.057 7.70703 104.953 7.06836 105.996 6.66992C107.039 6.25977 108.199 6.05469 109.477 6.05469C110.508 6.05469 111.457 6.18359 112.324 6.44141C113.203 6.69922 113.988 7.10352 114.68 7.6543C115.383 8.19336 115.98 8.89648 116.473 9.76367C116.965 10.6191 117.34 11.6504 117.598 12.8574C117.867 14.0527 118.002 15.4355 118.002 17.0059ZM113.361 21.9453V16.3555C113.361 15.3711 113.303 14.5156 113.186 13.7891C113.08 13.0508 112.922 12.4238 112.711 11.9082C112.5 11.3926 112.236 10.9766 111.92 10.6602C111.604 10.332 111.24 10.0918 110.83 9.93945C110.42 9.78711 109.969 9.71094 109.477 9.71094C108.867 9.71094 108.322 9.83398 107.842 10.0801C107.361 10.3145 106.957 10.6895 106.629 11.2051C106.301 11.7207 106.049 12.4062 105.873 13.2617C105.709 14.1055 105.627 15.1367 105.627 16.3555V21.9453C105.627 22.9297 105.68 23.791 105.785 24.5293C105.902 25.2676 106.066 25.9004 106.277 26.4277C106.5 26.9551 106.764 27.3887 107.068 27.7285C107.385 28.0566 107.748 28.3027 108.158 28.4668C108.568 28.6191 109.02 28.6953 109.512 28.6953C110.133 28.6953 110.678 28.5723 111.146 28.3262C111.627 28.0801 112.031 27.6934 112.359 27.166C112.688 26.627 112.934 25.9297 113.098 25.0742C113.273 24.207 113.361 23.1641 113.361 21.9453ZM138.568 17.0059V21.3125C138.568 23.2812 138.369 24.9629 137.971 26.3574C137.572 27.752 136.998 28.8945 136.248 29.7852C135.498 30.6641 134.602 31.3145 133.559 31.7363C132.516 32.1465 131.355 32.3516 130.078 32.3516C129.059 32.3516 128.109 32.2227 127.23 31.9648C126.352 31.6953 125.561 31.2852 124.857 30.7344C124.166 30.1719 123.568 29.457 123.064 28.5898C122.572 27.7227 122.191 26.6855 121.922 25.4785C121.664 24.2715 121.535 22.8828 121.535 21.3125V17.0059C121.535 15.0371 121.734 13.3613 122.133 11.9785C122.543 10.5957 123.123 9.46484 123.873 8.58594C124.623 7.70703 125.52 7.06836 126.562 6.66992C127.605 6.25977 128.766 6.05469 130.043 6.05469C131.074 6.05469 132.023 6.18359 132.891 6.44141C133.77 6.69922 134.555 7.10352 135.246 7.6543C135.949 8.19336 136.547 8.89648 137.039 9.76367C137.531 10.6191 137.906 11.6504 138.164 12.8574C138.434 14.0527 138.568 15.4355 138.568 17.0059ZM133.928 21.9453V16.3555C133.928 15.3711 133.869 14.5156 133.752 13.7891C133.646 13.0508 133.488 12.4238 133.277 11.9082C133.066 11.3926 132.803 10.9766 132.486 10.6602C132.17 10.332 131.807 10.0918 131.396 9.93945C130.986 9.78711 130.535 9.71094 130.043 9.71094C129.434 9.71094 128.889 9.83398 128.408 10.0801C127.928 10.3145 127.523 10.6895 127.195 11.2051C126.867 11.7207 126.615 12.4062 126.439 13.2617C126.275 14.1055 126.193 15.1367 126.193 16.3555V21.9453C126.193 22.9297 126.246 23.791 126.352 24.5293C126.469 25.2676 126.633 25.9004 126.844 26.4277C127.066 26.9551 127.33 27.3887 127.635 27.7285C127.951 28.0566 128.314 28.3027 128.725 28.4668C129.135 28.6191 129.586 28.6953 130.078 28.6953C130.699 28.6953 131.244 28.5723 131.713 28.3262C132.193 28.0801 132.598 27.6934 132.926 27.166C133.254 26.627 133.5 25.9297 133.664 25.0742C133.84 24.207 133.928 23.1641 133.928 21.9453ZM159.135 17.0059V21.3125C159.135 23.2812 158.936 24.9629 158.537 26.3574C158.139 27.752 157.564 28.8945 156.814 29.7852C156.064 30.6641 155.168 31.3145 154.125 31.7363C153.082 32.1465 151.922 32.3516 150.645 32.3516C149.625 32.3516 148.676 32.2227 147.797 31.9648C146.918 31.6953 146.127 31.2852 145.424 30.7344C144.732 30.1719 144.135 29.457 143.631 28.5898C143.139 27.7227 142.758 26.6855 142.488 25.4785C142.23 24.2715 142.102 22.8828 142.102 21.3125V17.0059C142.102 15.0371 142.301 13.3613 142.699 11.9785C143.109 10.5957 143.689 9.46484 144.439 8.58594C145.189 7.70703 146.086 7.06836 147.129 6.66992C148.172 6.25977 149.332 6.05469 150.609 6.05469C151.641 6.05469 152.59 6.18359 153.457 6.44141C154.336 6.69922 155.121 7.10352 155.812 7.6543C156.516 8.19336 157.113 8.89648 157.605 9.76367C158.098 10.6191 158.473 11.6504 158.73 12.8574C159 14.0527 159.135 15.4355 159.135 17.0059ZM154.494 21.9453V16.3555C154.494 15.3711 154.436 14.5156 154.318 13.7891C154.213 13.0508 154.055 12.4238 153.844 11.9082C153.633 11.3926 153.369 10.9766 153.053 10.6602C152.736 10.332 152.373 10.0918 151.963 9.93945C151.553 9.78711 151.102 9.71094 150.609 9.71094C150 9.71094 149.455 9.83398 148.975 10.0801C148.494 10.3145 148.09 10.6895 147.762 11.2051C147.434 11.7207 147.182 12.4062 147.006 13.2617C146.842 14.1055 146.76 15.1367 146.76 16.3555V21.9453C146.76 22.9297 146.812 23.791 146.918 24.5293C147.035 25.2676 147.199 25.9004 147.41 26.4277C147.633 26.9551 147.896 27.3887 148.201 27.7285C148.518 28.0566 148.881 28.3027 149.291 28.4668C149.701 28.6191 150.152 28.6953 150.645 28.6953C151.266 28.6953 151.811 28.5723 152.279 28.3262C152.76 28.0801 153.164 27.6934 153.492 27.166C153.82 26.627 154.066 25.9297 154.23 25.0742C154.406 24.207 154.494 23.1641 154.494 21.9453Z" fill="black"/>
<path d="M172.596 32V27.608L169.536 29.696L168.06 27.5L172.596 24.404V21.2L169.572 23.288L168.06 21.092L172.596 17.996V10.832H165.72V6.296H184.872V10.832H177.96V14.324L181.236 12.056L182.748 14.252L177.96 17.528V20.732L181.2 18.5L182.712 20.696L177.96 23.936V32H172.596Z" fill="black"/>
<path d="M2.07422 51.2031L5.39648 57.6279L8.72754 51.2031H10.6523L6.24023 59.2188V64H4.54395V59.2188L0.131836 51.2031H2.07422ZM11.0391 59.3506V59.1484C11.0391 58.4629 11.1387 57.8271 11.3379 57.2412C11.5371 56.6494 11.8242 56.1367 12.1992 55.7031C12.5742 55.2637 13.0283 54.9238 13.5615 54.6836C14.0947 54.4375 14.6924 54.3145 15.3545 54.3145C16.0225 54.3145 16.623 54.4375 17.1562 54.6836C17.6953 54.9238 18.1523 55.2637 18.5273 55.7031C18.9082 56.1367 19.1982 56.6494 19.3975 57.2412C19.5967 57.8271 19.6963 58.4629 19.6963 59.1484V59.3506C19.6963 60.0361 19.5967 60.6719 19.3975 61.2578C19.1982 61.8438 18.9082 62.3564 18.5273 62.7959C18.1523 63.2295 17.6982 63.5693 17.165 63.8154C16.6377 64.0557 16.04 64.1758 15.3721 64.1758C14.7041 64.1758 14.1035 64.0557 13.5703 63.8154C13.0371 63.5693 12.5801 63.2295 12.1992 62.7959C11.8242 62.3564 11.5371 61.8438 11.3379 61.2578C11.1387 60.6719 11.0391 60.0361 11.0391 59.3506ZM12.665 59.1484V59.3506C12.665 59.8252 12.7207 60.2734 12.832 60.6953C12.9434 61.1113 13.1104 61.4805 13.333 61.8027C13.5615 62.125 13.8457 62.3799 14.1855 62.5674C14.5254 62.749 14.9209 62.8398 15.3721 62.8398C15.8174 62.8398 16.207 62.749 16.541 62.5674C16.8809 62.3799 17.1621 62.125 17.3848 61.8027C17.6074 61.4805 17.7744 61.1113 17.8857 60.6953C18.0029 60.2734 18.0615 59.8252 18.0615 59.3506V59.1484C18.0615 58.6797 18.0029 58.2373 17.8857 57.8213C17.7744 57.3994 17.6045 57.0273 17.376 56.7051C17.1533 56.377 16.8721 56.1191 16.5322 55.9316C16.1982 55.7441 15.8057 55.6504 15.3545 55.6504C14.9092 55.6504 14.5166 55.7441 14.1768 55.9316C13.8428 56.1191 13.5615 56.377 13.333 56.7051C13.1104 57.0273 12.9434 57.3994 12.832 57.8213C12.7207 58.2373 12.665 58.6797 12.665 59.1484ZM27.5537 61.8027V54.4902H29.1885V64H27.6328L27.5537 61.8027ZM27.8613 59.7988L28.5381 59.7812C28.5381 60.4141 28.4707 61 28.3359 61.5391C28.207 62.0723 27.9961 62.5352 27.7031 62.9277C27.4102 63.3203 27.0264 63.6279 26.5518 63.8506C26.0771 64.0674 25.5 64.1758 24.8203 64.1758C24.3574 64.1758 23.9326 64.1084 23.5459 63.9736C23.165 63.8389 22.8369 63.6309 22.5615 63.3496C22.2861 63.0684 22.0723 62.7021 21.9199 62.251C21.7734 61.7998 21.7002 61.2578 21.7002 60.625V54.4902H23.3262V60.6426C23.3262 61.0703 23.373 61.4248 23.4668 61.7061C23.5664 61.9814 23.6982 62.2012 23.8623 62.3652C24.0322 62.5234 24.2197 62.6348 24.4248 62.6992C24.6357 62.7637 24.8525 62.7959 25.0752 62.7959C25.7666 62.7959 26.3145 62.6641 26.7188 62.4004C27.123 62.1309 27.4131 61.7705 27.5889 61.3193C27.7705 60.8623 27.8613 60.3555 27.8613 59.7988ZM33.293 55.9844V64H31.667V54.4902H33.249L33.293 55.9844ZM36.2637 54.4375L36.2549 55.9492C36.1201 55.9199 35.9912 55.9023 35.8682 55.8965C35.751 55.8848 35.6162 55.8789 35.4639 55.8789C35.0889 55.8789 34.7578 55.9375 34.4707 56.0547C34.1836 56.1719 33.9404 56.3359 33.7412 56.5469C33.542 56.7578 33.3838 57.0098 33.2666 57.3027C33.1553 57.5898 33.082 57.9062 33.0469 58.252L32.5898 58.5156C32.5898 57.9414 32.6455 57.4023 32.7568 56.8984C32.874 56.3945 33.0527 55.9492 33.293 55.5625C33.5332 55.1699 33.8379 54.8652 34.207 54.6484C34.582 54.4258 35.0273 54.3145 35.543 54.3145C35.6602 54.3145 35.7949 54.3291 35.9473 54.3584C36.0996 54.3818 36.2051 54.4082 36.2637 54.4375ZM44.2969 51.2031V64H42.6006V51.2031H44.2969ZM48.7617 56.5205V64H47.1357V54.4902H48.6738L48.7617 56.5205ZM48.375 58.8848L47.6982 58.8584C47.7041 58.208 47.8008 57.6074 47.9883 57.0566C48.1758 56.5 48.4395 56.0166 48.7793 55.6064C49.1191 55.1963 49.5234 54.8799 49.9922 54.6572C50.4668 54.4287 50.9912 54.3145 51.5654 54.3145C52.0342 54.3145 52.4561 54.3789 52.8311 54.5078C53.2061 54.6309 53.5254 54.8301 53.7891 55.1055C54.0586 55.3809 54.2637 55.7383 54.4043 56.1777C54.5449 56.6113 54.6152 57.1416 54.6152 57.7686V64H52.9805V57.751C52.9805 57.2529 52.9072 56.8545 52.7607 56.5557C52.6143 56.251 52.4004 56.0312 52.1191 55.8965C51.8379 55.7559 51.4922 55.6855 51.082 55.6855C50.6777 55.6855 50.3086 55.7705 49.9746 55.9404C49.6465 56.1104 49.3623 56.3447 49.1221 56.6436C48.8877 56.9424 48.7031 57.2852 48.5684 57.6719C48.4395 58.0527 48.375 58.457 48.375 58.8848ZM60.8906 62.8398C61.2773 62.8398 61.6348 62.7607 61.9629 62.6025C62.291 62.4443 62.5605 62.2275 62.7715 61.9521C62.9824 61.6709 63.1025 61.3516 63.1318 60.9941H64.6787C64.6494 61.5566 64.459 62.0811 64.1074 62.5674C63.7617 63.0479 63.3076 63.4375 62.7451 63.7363C62.1826 64.0293 61.5645 64.1758 60.8906 64.1758C60.1758 64.1758 59.5518 64.0498 59.0186 63.7979C58.4912 63.5459 58.0518 63.2002 57.7002 62.7607C57.3545 62.3213 57.0938 61.8174 56.918 61.249C56.748 60.6748 56.6631 60.0684 56.6631 59.4297V59.0605C56.6631 58.4219 56.748 57.8184 56.918 57.25C57.0938 56.6758 57.3545 56.1689 57.7002 55.7295C58.0518 55.29 58.4912 54.9443 59.0186 54.6924C59.5518 54.4404 60.1758 54.3145 60.8906 54.3145C61.6348 54.3145 62.2852 54.4668 62.8418 54.7715C63.3984 55.0703 63.835 55.4805 64.1514 56.002C64.4736 56.5176 64.6494 57.1035 64.6787 57.7598H63.1318C63.1025 57.3672 62.9912 57.0127 62.7979 56.6963C62.6104 56.3799 62.3525 56.1279 62.0244 55.9404C61.7021 55.7471 61.3242 55.6504 60.8906 55.6504C60.3926 55.6504 59.9736 55.75 59.6338 55.9492C59.2998 56.1426 59.0332 56.4062 58.834 56.7402C58.6406 57.0684 58.5 57.4346 58.4121 57.8389C58.3301 58.2373 58.2891 58.6445 58.2891 59.0605V59.4297C58.2891 59.8457 58.3301 60.2559 58.4121 60.6602C58.4941 61.0645 58.6318 61.4307 58.8252 61.7588C59.0244 62.0869 59.291 62.3506 59.625 62.5498C59.9648 62.7432 60.3867 62.8398 60.8906 62.8398ZM66.0762 59.3506V59.1484C66.0762 58.4629 66.1758 57.8271 66.375 57.2412C66.5742 56.6494 66.8613 56.1367 67.2363 55.7031C67.6113 55.2637 68.0654 54.9238 68.5986 54.6836C69.1318 54.4375 69.7295 54.3145 70.3916 54.3145C71.0596 54.3145 71.6602 54.4375 72.1934 54.6836C72.7324 54.9238 73.1895 55.2637 73.5645 55.7031C73.9453 56.1367 74.2354 56.6494 74.4346 57.2412C74.6338 57.8271 74.7334 58.4629 74.7334 59.1484V59.3506C74.7334 60.0361 74.6338 60.6719 74.4346 61.2578C74.2354 61.8438 73.9453 62.3564 73.5645 62.7959C73.1895 63.2295 72.7354 63.5693 72.2021 63.8154C71.6748 64.0557 71.0771 64.1758 70.4092 64.1758C69.7412 64.1758 69.1406 64.0557 68.6074 63.8154C68.0742 63.5693 67.6172 63.2295 67.2363 62.7959C66.8613 62.3564 66.5742 61.8438 66.375 61.2578C66.1758 60.6719 66.0762 60.0361 66.0762 59.3506ZM67.7021 59.1484V59.3506C67.7021 59.8252 67.7578 60.2734 67.8691 60.6953C67.9805 61.1113 68.1475 61.4805 68.3701 61.8027C68.5986 62.125 68.8828 62.3799 69.2227 62.5674C69.5625 62.749 69.958 62.8398 70.4092 62.8398C70.8545 62.8398 71.2441 62.749 71.5781 62.5674C71.918 62.3799 72.1992 62.125 72.4219 61.8027C72.6445 61.4805 72.8115 61.1113 72.9229 60.6953C73.04 60.2734 73.0986 59.8252 73.0986 59.3506V59.1484C73.0986 58.6797 73.04 58.2373 72.9229 57.8213C72.8115 57.3994 72.6416 57.0273 72.4131 56.7051C72.1904 56.377 71.9092 56.1191 71.5693 55.9316C71.2354 55.7441 70.8428 55.6504 70.3916 55.6504C69.9463 55.6504 69.5537 55.7441 69.2139 55.9316C68.8799 56.1191 68.5986 56.377 68.3701 56.7051C68.1475 57.0273 67.9805 57.3994 67.8691 57.8213C67.7578 58.2373 67.7021 58.6797 67.7021 59.1484ZM78.3896 56.3799V64H76.7549V54.4902H78.3018L78.3896 56.3799ZM78.0557 58.8848L77.2998 58.8584C77.3057 58.208 77.3906 57.6074 77.5547 57.0566C77.7188 56.5 77.9619 56.0166 78.2842 55.6064C78.6064 55.1963 79.0078 54.8799 79.4883 54.6572C79.9688 54.4287 80.5254 54.3145 81.1582 54.3145C81.6035 54.3145 82.0137 54.3789 82.3887 54.5078C82.7637 54.6309 83.0889 54.8271 83.3643 55.0967C83.6396 55.3662 83.8535 55.7119 84.0059 56.1338C84.1582 56.5557 84.2344 57.0654 84.2344 57.6631V64H82.6084V57.7422C82.6084 57.2441 82.5234 56.8457 82.3535 56.5469C82.1895 56.248 81.9551 56.0312 81.6504 55.8965C81.3457 55.7559 80.9883 55.6855 80.5781 55.6855C80.0977 55.6855 79.6963 55.7705 79.374 55.9404C79.0518 56.1104 78.7939 56.3447 78.6006 56.6436C78.4072 56.9424 78.2666 57.2852 78.1787 57.6719C78.0967 58.0527 78.0557 58.457 78.0557 58.8848ZM84.2168 57.9883L83.127 58.3223C83.1328 57.8008 83.2178 57.2998 83.3818 56.8193C83.5518 56.3389 83.7949 55.9111 84.1113 55.5361C84.4336 55.1611 84.8291 54.8652 85.2979 54.6484C85.7666 54.4258 86.3027 54.3145 86.9062 54.3145C87.416 54.3145 87.8672 54.3818 88.2598 54.5166C88.6582 54.6514 88.9922 54.8594 89.2617 55.1406C89.5371 55.416 89.7451 55.7705 89.8857 56.2041C90.0264 56.6377 90.0967 57.1533 90.0967 57.751V64H88.4619V57.7334C88.4619 57.2002 88.377 56.7871 88.207 56.4941C88.043 56.1953 87.8086 55.9873 87.5039 55.8701C87.2051 55.7471 86.8477 55.6855 86.4316 55.6855C86.0742 55.6855 85.7578 55.7471 85.4824 55.8701C85.207 55.9932 84.9756 56.1631 84.7881 56.3799C84.6006 56.5908 84.457 56.834 84.3574 57.1094C84.2637 57.3848 84.2168 57.6777 84.2168 57.9883ZM96.5039 64.1758C95.8418 64.1758 95.2412 64.0645 94.7021 63.8418C94.1689 63.6133 93.709 63.2939 93.3223 62.8838C92.9414 62.4736 92.6484 61.9873 92.4434 61.4248C92.2383 60.8623 92.1357 60.2471 92.1357 59.5791V59.21C92.1357 58.4365 92.25 57.748 92.4785 57.1445C92.707 56.5352 93.0176 56.0195 93.4102 55.5977C93.8027 55.1758 94.248 54.8564 94.7461 54.6396C95.2441 54.4229 95.7598 54.3145 96.293 54.3145C96.9727 54.3145 97.5586 54.4316 98.0508 54.666C98.5488 54.9004 98.9561 55.2285 99.2725 55.6504C99.5889 56.0664 99.8232 56.5586 99.9756 57.127C100.128 57.6895 100.204 58.3047 100.204 58.9727V59.7021H93.1025V58.375H98.5781V58.252C98.5547 57.8301 98.4668 57.4199 98.3145 57.0215C98.168 56.623 97.9336 56.2949 97.6113 56.0371C97.2891 55.7793 96.8496 55.6504 96.293 55.6504C95.9238 55.6504 95.584 55.7295 95.2734 55.8877C94.9629 56.04 94.6963 56.2686 94.4736 56.5732C94.251 56.8779 94.0781 57.25 93.9551 57.6895C93.832 58.1289 93.7705 58.6357 93.7705 59.21V59.5791C93.7705 60.0303 93.832 60.4551 93.9551 60.8535C94.084 61.2461 94.2686 61.5918 94.5088 61.8906C94.7549 62.1895 95.0508 62.4238 95.3965 62.5938C95.748 62.7637 96.1465 62.8486 96.5918 62.8486C97.166 62.8486 97.6523 62.7314 98.0508 62.4971C98.4492 62.2627 98.7979 61.9492 99.0967 61.5566L100.081 62.3389C99.876 62.6494 99.6152 62.9453 99.2988 63.2266C98.9824 63.5078 98.5928 63.7363 98.1299 63.9121C97.6729 64.0879 97.1309 64.1758 96.5039 64.1758ZM111.551 52.3369L107.314 64H105.583L110.461 51.2031H111.577L111.551 52.3369ZM115.102 64L110.856 52.3369L110.83 51.2031H111.946L116.842 64H115.102ZM114.882 59.2627V60.6514H107.692V59.2627H114.882ZM119.927 56.3799V64H118.292V54.4902H119.839L119.927 56.3799ZM119.593 58.8848L118.837 58.8584C118.843 58.208 118.928 57.6074 119.092 57.0566C119.256 56.5 119.499 56.0166 119.821 55.6064C120.144 55.1963 120.545 54.8799 121.025 54.6572C121.506 54.4287 122.062 54.3145 122.695 54.3145C123.141 54.3145 123.551 54.3789 123.926 54.5078C124.301 54.6309 124.626 54.8271 124.901 55.0967C125.177 55.3662 125.391 55.7119 125.543 56.1338C125.695 56.5557 125.771 57.0654 125.771 57.6631V64H124.146V57.7422C124.146 57.2441 124.061 56.8457 123.891 56.5469C123.727 56.248 123.492 56.0312 123.188 55.8965C122.883 55.7559 122.525 55.6855 122.115 55.6855C121.635 55.6855 121.233 55.7705 120.911 55.9404C120.589 56.1104 120.331 56.3447 120.138 56.6436C119.944 56.9424 119.804 57.2852 119.716 57.6719C119.634 58.0527 119.593 58.457 119.593 58.8848ZM125.754 57.9883L124.664 58.3223C124.67 57.8008 124.755 57.2998 124.919 56.8193C125.089 56.3389 125.332 55.9111 125.648 55.5361C125.971 55.1611 126.366 54.8652 126.835 54.6484C127.304 54.4258 127.84 54.3145 128.443 54.3145C128.953 54.3145 129.404 54.3818 129.797 54.5166C130.195 54.6514 130.529 54.8594 130.799 55.1406C131.074 55.416 131.282 55.7705 131.423 56.2041C131.563 56.6377 131.634 57.1533 131.634 57.751V64H129.999V57.7334C129.999 57.2002 129.914 56.7871 129.744 56.4941C129.58 56.1953 129.346 55.9873 129.041 55.8701C128.742 55.7471 128.385 55.6855 127.969 55.6855C127.611 55.6855 127.295 55.7471 127.02 55.8701C126.744 55.9932 126.513 56.1631 126.325 56.3799C126.138 56.5908 125.994 56.834 125.895 57.1094C125.801 57.3848 125.754 57.6777 125.754 57.9883ZM133.664 59.3506V59.1484C133.664 58.4629 133.764 57.8271 133.963 57.2412C134.162 56.6494 134.449 56.1367 134.824 55.7031C135.199 55.2637 135.653 54.9238 136.187 54.6836C136.72 54.4375 137.317 54.3145 137.979 54.3145C138.647 54.3145 139.248 54.4375 139.781 54.6836C140.32 54.9238 140.777 55.2637 141.152 55.7031C141.533 56.1367 141.823 56.6494 142.022 57.2412C142.222 57.8271 142.321 58.4629 142.321 59.1484V59.3506C142.321 60.0361 142.222 60.6719 142.022 61.2578C141.823 61.8438 141.533 62.3564 141.152 62.7959C140.777 63.2295 140.323 63.5693 139.79 63.8154C139.263 64.0557 138.665 64.1758 137.997 64.1758C137.329 64.1758 136.729 64.0557 136.195 63.8154C135.662 63.5693 135.205 63.2295 134.824 62.7959C134.449 62.3564 134.162 61.8438 133.963 61.2578C133.764 60.6719 133.664 60.0361 133.664 59.3506ZM135.29 59.1484V59.3506C135.29 59.8252 135.346 60.2734 135.457 60.6953C135.568 61.1113 135.735 61.4805 135.958 61.8027C136.187 62.125 136.471 62.3799 136.811 62.5674C137.15 62.749 137.546 62.8398 137.997 62.8398C138.442 62.8398 138.832 62.749 139.166 62.5674C139.506 62.3799 139.787 62.125 140.01 61.8027C140.232 61.4805 140.399 61.1113 140.511 60.6953C140.628 60.2734 140.687 59.8252 140.687 59.3506V59.1484C140.687 58.6797 140.628 58.2373 140.511 57.8213C140.399 57.3994 140.229 57.0273 140.001 56.7051C139.778 56.377 139.497 56.1191 139.157 55.9316C138.823 55.7441 138.431 55.6504 137.979 55.6504C137.534 55.6504 137.142 55.7441 136.802 55.9316C136.468 56.1191 136.187 56.377 135.958 56.7051C135.735 57.0273 135.568 57.3994 135.457 57.8213C135.346 58.2373 135.29 58.6797 135.29 59.1484ZM150.179 61.8027V54.4902H151.813V64H150.258L150.179 61.8027ZM150.486 59.7988L151.163 59.7812C151.163 60.4141 151.096 61 150.961 61.5391C150.832 62.0723 150.621 62.5352 150.328 62.9277C150.035 63.3203 149.651 63.6279 149.177 63.8506C148.702 64.0674 148.125 64.1758 147.445 64.1758C146.982 64.1758 146.558 64.1084 146.171 63.9736C145.79 63.8389 145.462 63.6309 145.187 63.3496C144.911 63.0684 144.697 62.7021 144.545 62.251C144.398 61.7998 144.325 61.2578 144.325 60.625V54.4902H145.951V60.6426C145.951 61.0703 145.998 61.4248 146.092 61.7061C146.191 61.9814 146.323 62.2012 146.487 62.3652C146.657 62.5234 146.845 62.6348 147.05 62.6992C147.261 62.7637 147.478 62.7959 147.7 62.7959C148.392 62.7959 148.939 62.6641 149.344 62.4004C149.748 62.1309 150.038 61.7705 150.214 61.3193C150.396 60.8623 150.486 60.3555 150.486 59.7988ZM155.918 56.5205V64H154.292V54.4902H155.83L155.918 56.5205ZM155.531 58.8848L154.854 58.8584C154.86 58.208 154.957 57.6074 155.145 57.0566C155.332 56.5 155.596 56.0166 155.936 55.6064C156.275 55.1963 156.68 54.8799 157.148 54.6572C157.623 54.4287 158.147 54.3145 158.722 54.3145C159.19 54.3145 159.612 54.3789 159.987 54.5078C160.362 54.6309 160.682 54.8301 160.945 55.1055C161.215 55.3809 161.42 55.7383 161.561 56.1777C161.701 56.6113 161.771 57.1416 161.771 57.7686V64H160.137V57.751C160.137 57.2529 160.063 56.8545 159.917 56.5557C159.771 56.251 159.557 56.0312 159.275 55.8965C158.994 55.7559 158.648 55.6855 158.238 55.6855C157.834 55.6855 157.465 55.7705 157.131 55.9404C156.803 56.1104 156.519 56.3447 156.278 56.6436C156.044 56.9424 155.859 57.2852 155.725 57.6719C155.596 58.0527 155.531 58.457 155.531 58.8848ZM168.223 54.4902V55.7383H163.081V54.4902H168.223ZM164.821 52.1787H166.447V61.6445C166.447 61.9668 166.497 62.21 166.597 62.374C166.696 62.5381 166.825 62.6465 166.983 62.6992C167.142 62.752 167.312 62.7783 167.493 62.7783C167.628 62.7783 167.769 62.7666 167.915 62.7432C168.067 62.7139 168.182 62.6904 168.258 62.6729L168.267 64C168.138 64.041 167.968 64.0791 167.757 64.1143C167.552 64.1553 167.303 64.1758 167.01 64.1758C166.611 64.1758 166.245 64.0967 165.911 63.9385C165.577 63.7803 165.311 63.5166 165.111 63.1475C164.918 62.7725 164.821 62.2686 164.821 61.6357V52.1787Z" fill="#64748B"/>
</svg>
