<svg width="49" height="15" viewBox="0 0 49 15" fill="none" xmlns="http://www.w3.org/2000/svg">
<path d="M5.13281 0.59375V12H3.0625V3.00781L0.320312 3.91406V2.24219L4.89844 0.59375H5.13281ZM11.0156 10.1406L11 11.5703C11 12.1276 10.862 12.6927 10.5859 13.2656C10.3099 13.8385 9.95312 14.3125 9.51562 14.6875L8.42188 14.0859C8.5625 13.8516 8.69271 13.6146 8.8125 13.375C8.9375 13.1354 9.03646 12.875 9.10938 12.5938C9.1875 12.3177 9.22656 12.0078 9.22656 11.6641V10.1406H11.0156ZM20.2578 5.33594V7.25C20.2578 8.125 20.1693 8.8724 19.9922 9.49219C19.8151 10.112 19.5599 10.6198 19.2266 11.0156C18.8932 11.4062 18.4948 11.6953 18.0312 11.8828C17.5677 12.0651 17.0521 12.1562 16.4844 12.1562C16.0312 12.1562 15.6094 12.099 15.2188 11.9844C14.8281 11.8646 14.4766 11.6823 14.1641 11.4375C13.8568 11.1875 13.5911 10.8698 13.3672 10.4844C13.1484 10.099 12.9792 9.63802 12.8594 9.10156C12.7448 8.5651 12.6875 7.94792 12.6875 7.25V5.33594C12.6875 4.46094 12.776 3.71615 12.9531 3.10156C13.1354 2.48698 13.3932 1.98438 13.7266 1.59375C14.0599 1.20312 14.4583 0.919271 14.9219 0.742188C15.3854 0.559896 15.901 0.46875 16.4688 0.46875C16.9271 0.46875 17.349 0.526042 17.7344 0.640625C18.125 0.755208 18.474 0.934896 18.7812 1.17969C19.0938 1.41927 19.3594 1.73177 19.5781 2.11719C19.7969 2.4974 19.9635 2.95573 20.0781 3.49219C20.1979 4.02344 20.2578 4.63802 20.2578 5.33594ZM18.1953 7.53125V5.04688C18.1953 4.60938 18.1693 4.22917 18.1172 3.90625C18.0703 3.57812 18 3.29948 17.9062 3.07031C17.8125 2.84115 17.6953 2.65625 17.5547 2.51562C17.4141 2.36979 17.2526 2.26302 17.0703 2.19531C16.888 2.1276 16.6875 2.09375 16.4688 2.09375C16.1979 2.09375 15.9557 2.14844 15.7422 2.25781C15.5286 2.36198 15.349 2.52865 15.2031 2.75781C15.0573 2.98698 14.9453 3.29167 14.8672 3.67188C14.7943 4.04688 14.7578 4.50521 14.7578 5.04688V7.53125C14.7578 7.96875 14.7812 8.35156 14.8281 8.67969C14.8802 9.00781 14.9531 9.28906 15.0469 9.52344C15.1458 9.75781 15.263 9.95052 15.3984 10.1016C15.5391 10.2474 15.7005 10.3568 15.8828 10.4297C16.0651 10.4974 16.2656 10.5312 16.4844 10.5312C16.7604 10.5312 17.0026 10.4766 17.2109 10.3672C17.4245 10.2578 17.6042 10.0859 17.75 9.85156C17.8958 9.61198 18.0052 9.30208 18.0781 8.92188C18.1562 8.53646 18.1953 8.07292 18.1953 7.53125ZM29.3984 5.33594V7.25C29.3984 8.125 29.3099 8.8724 29.1328 9.49219C28.9557 10.112 28.7005 10.6198 28.3672 11.0156C28.0339 11.4062 27.6354 11.6953 27.1719 11.8828C26.7083 12.0651 26.1927 12.1562 25.625 12.1562C25.1719 12.1562 24.75 12.099 24.3594 11.9844C23.9688 11.8646 23.6172 11.6823 23.3047 11.4375C22.9974 11.1875 22.7318 10.8698 22.5078 10.4844C22.2891 10.099 22.1198 9.63802 22 9.10156C21.8854 8.5651 21.8281 7.94792 21.8281 7.25V5.33594C21.8281 4.46094 21.9167 3.71615 22.0938 3.10156C22.276 2.48698 22.5339 1.98438 22.8672 1.59375C23.2005 1.20312 23.599 0.919271 24.0625 0.742188C24.526 0.559896 25.0417 0.46875 25.6094 0.46875C26.0677 0.46875 26.4896 0.526042 26.875 0.640625C27.2656 0.755208 27.6146 0.934896 27.9219 1.17969C28.2344 1.41927 28.5 1.73177 28.7188 2.11719C28.9375 2.4974 29.1042 2.95573 29.2188 3.49219C29.3385 4.02344 29.3984 4.63802 29.3984 5.33594ZM27.3359 7.53125V5.04688C27.3359 4.60938 27.3099 4.22917 27.2578 3.90625C27.2109 3.57812 27.1406 3.29948 27.0469 3.07031C26.9531 2.84115 26.8359 2.65625 26.6953 2.51562C26.5547 2.36979 26.3932 2.26302 26.2109 2.19531C26.0286 2.1276 25.8281 2.09375 25.6094 2.09375C25.3385 2.09375 25.0964 2.14844 24.8828 2.25781C24.6693 2.36198 24.4896 2.52865 24.3438 2.75781C24.1979 2.98698 24.0859 3.29167 24.0078 3.67188C23.9349 4.04688 23.8984 4.50521 23.8984 5.04688V7.53125C23.8984 7.96875 23.9219 8.35156 23.9688 8.67969C24.0208 9.00781 24.0938 9.28906 24.1875 9.52344C24.2865 9.75781 24.4036 9.95052 24.5391 10.1016C24.6797 10.2474 24.8411 10.3568 25.0234 10.4297C25.2057 10.4974 25.4062 10.5312 25.625 10.5312C25.901 10.5312 26.1432 10.4766 26.3516 10.3672C26.5651 10.2578 26.7448 10.0859 26.8906 9.85156C27.0365 9.61198 27.1458 9.30208 27.2188 8.92188C27.2969 8.53646 27.3359 8.07292 27.3359 7.53125ZM38.5391 5.33594V7.25C38.5391 8.125 38.4505 8.8724 38.2734 9.49219C38.0964 10.112 37.8411 10.6198 37.5078 11.0156C37.1745 11.4062 36.776 11.6953 36.3125 11.8828C35.849 12.0651 35.3333 12.1562 34.7656 12.1562C34.3125 12.1562 33.8906 12.099 33.5 11.9844C33.1094 11.8646 32.7578 11.6823 32.4453 11.4375C32.138 11.1875 31.8724 10.8698 31.6484 10.4844C31.4297 10.099 31.2604 9.63802 31.1406 9.10156C31.026 8.5651 30.9688 7.94792 30.9688 7.25V5.33594C30.9688 4.46094 31.0573 3.71615 31.2344 3.10156C31.4167 2.48698 31.6745 1.98438 32.0078 1.59375C32.3411 1.20312 32.7396 0.919271 33.2031 0.742188C33.6667 0.559896 34.1823 0.46875 34.75 0.46875C35.2083 0.46875 35.6302 0.526042 36.0156 0.640625C36.4062 0.755208 36.7552 0.934896 37.0625 1.17969C37.375 1.41927 37.6406 1.73177 37.8594 2.11719C38.0781 2.4974 38.2448 2.95573 38.3594 3.49219C38.4792 4.02344 38.5391 4.63802 38.5391 5.33594ZM36.4766 7.53125V5.04688C36.4766 4.60938 36.4505 4.22917 36.3984 3.90625C36.3516 3.57812 36.2812 3.29948 36.1875 3.07031C36.0938 2.84115 35.9766 2.65625 35.8359 2.51562C35.6953 2.36979 35.5339 2.26302 35.3516 2.19531C35.1693 2.1276 34.9688 2.09375 34.75 2.09375C34.4792 2.09375 34.237 2.14844 34.0234 2.25781C33.8099 2.36198 33.6302 2.52865 33.4844 2.75781C33.3385 2.98698 33.2266 3.29167 33.1484 3.67188C33.0755 4.04688 33.0391 4.50521 33.0391 5.04688V7.53125C33.0391 7.96875 33.0625 8.35156 33.1094 8.67969C33.1615 9.00781 33.2344 9.28906 33.3281 9.52344C33.4271 9.75781 33.5443 9.95052 33.6797 10.1016C33.8203 10.2474 33.9818 10.3568 34.1641 10.4297C34.3464 10.4974 34.5469 10.5312 34.7656 10.5312C35.0417 10.5312 35.2839 10.4766 35.4922 10.3672C35.7057 10.2578 35.8854 10.0859 36.0312 9.85156C36.1771 9.61198 36.2865 9.30208 36.3594 8.92188C36.4375 8.53646 36.4766 8.07292 36.4766 7.53125ZM42.7041 12V10.048L41.3441 10.976L40.6881 10L42.7041 8.624V7.2L41.3601 8.128L40.6881 7.152L42.7041 5.776V2.592H39.6481V0.575999H48.1601V2.592H45.0881V4.144L46.5441 3.136L47.2161 4.112L45.0881 5.568V6.992L46.5281 6L47.2001 6.976L45.0881 8.416V12H42.7041Z" fill="#84CC16"/>
</svg>
